<?xml version="1.0" encoding="utf-8"?>
<!-- Generator: Adobe Illustrator 19.2.1, SVG Export Plug-In . SVG Version: 6.00 Build 0)  -->
<svg version="1.1" id="layer" xmlns="http://www.w3.org/2000/svg" xmlns:xlink="http://www.w3.org/1999/xlink" x="0px" y="0px"
	 viewBox="0 0 652 652" style="enable-background:new 0 0 652 652;" xml:space="preserve">
<style type="text/css">
	.st0{fill:#211E1F;}
	.st1{fill:none;stroke:#211E1F;stroke-width:0;stroke-linejoin:bevel;stroke-miterlimit:1;}
</style>
<path class="st0" d="M-79.3,271c-1.9,0-3.4,1.5-3.7,3.6l-8.7,79.5l8.7,77.8c0.3,2.1,1.8,3.6,3.7,3.6c1.9,0,3.4-1.5,3.7-3.6l9.9-77.8
	l-9.9-79.5C-75.9,272.5-77.4,271-79.3,271"/>
<path class="st0" d="M-112,301.5c-1.8,0-3.3,1.4-3.6,3.5l-6.5,49.2l6.5,48.3c0.3,2,1.7,3.4,3.6,3.4c1.8,0,3.3-1.4,3.5-3.4l7.7-48.4
	l-7.7-49.2C-108.7,302.9-110.2,301.5-112,301.5"/>
<path class="st0" d="M-44.4,255.4c-2.3,0-4.2,1.8-4.4,4.4l-8.3,94.3l8.3,90.9c0.2,2.5,2.1,4.4,4.4,4.4c2.3,0,4.2-1.8,4.4-4.3
	l9.4-90.9l-9.4-94.3C-40.3,257.2-42.1,255.4-44.4,255.4"/>
<path class="st0" d="M-9.4,252.1c-2.7,0-5,2.2-5.2,5.1l-7.8,96.9l7.8,93.8c0.2,2.9,2.5,5.1,5.2,5.1c2.7,0,4.9-2.2,5.2-5.1l8.9-93.8
	l-8.9-97C-4.5,254.3-6.7,252.1-9.4,252.1"/>
<path class="st1" d="M31.9,448.7L31.9,448.7L31.9,448.7z"/>
<path class="st0" d="M31.9,264.2c-0.2-3.3-2.8-5.8-5.9-5.8c-3.2,0-5.8,2.5-6,5.9l-7.4,89.9l7.4,94.5c0.2,3.3,2.8,5.9,6,5.9
	c3.2,0,5.7-2.5,5.9-5.9l8.4-94.5L31.9,264.2z"/>
<path class="st0" d="M61.6,201.2c-3.6,0-6.5,2.9-6.7,6.6l-6.9,146.3l6.9,94.5c0.2,3.7,3.1,6.6,6.7,6.6c3.5,0,6.5-2.9,6.7-6.6v0
	l7.8-94.5l-7.8-146.3C68.1,204.1,65.1,201.2,61.6,201.2"/>
<path class="st0" d="M97,167.5c-4,0-7.3,3.2-7.5,7.4L83,354.7l6.5,93.9c0.2,4.1,3.4,7.4,7.5,7.4c4,0,7.3-3.2,7.5-7.4v0l7.3-94
	l-7.3-179.8C104.2,170.8,100.9,167.5,97,167.5"/>
<path class="st0" d="M133.7,151.3c-4.5,0-8.1,3.6-8.2,8.2l-6,194.8l6,93c0.1,4.5,3.7,8.1,8.2,8.1c4.4,0,8-3.6,8.2-8.1v0.1l6.8-93
	l-6.8-194.8C141.7,154.9,138.1,151.3,133.7,151.3"/>
<path class="st0" d="M179.2,152.9c-0.2-5-4.1-8.9-9-8.9c-4.9,0-8.8,3.9-9,8.9l-5.6,201.3l5.6,92.4c0.2,4.9,4.1,8.9,9,8.9
	c4.9,0,8.8-3.9,9-8.9l6.3-92.4L179.2,152.9z"/>
<path class="st1" d="M179.2,446.6L179.2,446.6L179.2,446.6z"/>
<path class="st0" d="M207,148.4c-5.3,0-9.6,4.2-9.7,9.7l-5.1,196.2l5.1,91.5c0.1,5.4,4.4,9.6,9.7,9.6c5.3,0,9.6-4.3,9.7-9.7v0.1
	l5.8-91.6L216.7,158C216.5,152.6,212.3,148.4,207,148.4"/>
<path class="st0" d="M244.1,154.8c-5.8,0-10.4,4.6-10.5,10.4l-4.7,189l4.7,90.9c0.1,5.8,4.7,10.4,10.5,10.4
	c5.7,0,10.4-4.6,10.5-10.4v0.1l5.3-91l-5.3-189C254.4,159.4,249.8,154.8,244.1,154.8"/>
<path class="st0" d="M287.6,120c-1.8-1.2-3.9-1.9-6.2-1.9c-2.2,0-4.3,0.7-6,1.8c-3.1,2-5.1,5.5-5.2,9.4l0,2.1l-4.2,222.7l4.2,90.4
	l0,0.4c0.1,2.5,1.1,4.9,2.6,6.7c2.1,2.5,5.1,4.1,8.6,4.1c3.1,0,5.8-1.3,7.9-3.3c2-2,3.3-4.8,3.4-7.9l0.5-8.9l4.3-81.4l-4.7-224.9
	C292.6,125.5,290.6,122.1,287.6,120"/>
<polygon class="st1" points="292.6,444.6 292.6,444.6 292.6,444.6 292.6,444.6 292.6,444.6 292.6,444.6 "/>
<path class="st0" d="M324.8,98.7c-1.8-1.1-3.9-1.7-6.1-1.7c-2.9,0-5.5,1-7.6,2.7c-2.6,2.2-4.4,5.5-4.4,9.2l0,1.2l-4.9,244.1
	l2.5,45.1l2.4,43.9c0.1,6.5,5.5,11.9,12,11.9c6.5,0,11.9-5.4,12-12v0.1l5.3-89l-5.3-245.4C330.6,104.6,328.2,100.8,324.8,98.7"/>
<path class="st0" d="M654.5,238.2c-14.9,0-29.2,3-42.1,8.4c-8.7-98.1-91-175.1-191.3-175.1c-24.6,0-48.5,4.8-69.7,13
	c-8.2,3.2-10.4,6.5-10.5,12.8v345.6c0.1,6.7,5.3,11.9,11.8,12.5h301.9c60.1,0,108.9-48.2,108.9-108.4
	C763.5,286.9,714.7,238.2,654.5,238.2"/>
<path class="st0" d="M670.8,554.6h-7.9v-49.2h8.5c17,0,24,8.1,24,24.6C695.4,544.7,687.7,554.6,670.8,554.6 M672,489.7h-25.2v80.5
	h24c20.7,0,41.2-12,41.2-40.3C712,500.5,695,489.7,672,489.7 M610.5,534.9c0,12.9-6.3,20.8-16.6,20.8c-10.2,0-16.4-8.2-16.4-21v-45
	h-16.1v45.2c0,23.5,13.1,36.6,32.6,36.6c20.5,0,32.7-13.5,32.7-36.8v-45h-16.1V534.9z M510.6,555.5c-13,0-18.4-11.2-18.4-25.5
	c0-14.4,5.4-25.5,18.4-25.5c13,0,18.4,11.2,18.4,25.5C528.9,544.3,523.6,555.5,510.6,555.5 M510.6,488.4c-22,0-35,17-35,41.5
	c0,24.5,13,41.5,35,41.5c22,0,35-17,35-41.5C545.5,505.4,532.5,488.4,510.6,488.4 M435.9,489.7h-16.1v80.5h48.4v-15.9h-32.3V489.7z
	 M376.1,504.4c7.3,0,11.9,3.2,14.7,8.7l14.9-6.9c-5-10.5-14.3-17.8-29.4-17.8c-21,0-35.8,17-35.8,41.5c0,25.4,14.1,41.5,35.2,41.5
	c14.6,0,24.3-6.8,29.8-18.2l-13.6-8.1c-4.3,7.1-8.5,10.3-15.8,10.3c-12.1,0-19.1-11.1-19.1-25.5C357.1,515,364.1,504.4,376.1,504.4
	 M285.1,554.6h-7.9v-49.2h8.5c17,0,24.1,8.1,24.1,24.6C309.8,544.7,302.1,554.6,285.1,554.6 M286.3,489.7h-25.2v80.5h24
	c20.7,0,41.2-12,41.2-40.3C326.3,500.5,309.3,489.7,286.3,489.7 M224.5,523.7c0,4.5,0.2,14.6,0.2,17.6c-1-2.1-3.7-6.1-5.6-9.1
	l-28.6-42.6h-15.4v80.5H191v-35.5c0-4.5-0.2-14.6-0.2-17.6c1.1,2.1,3.7,6.1,5.7,9.1l29.6,44h14.4v-80.5h-15.9V523.7z M138.9,534.9
	c0,12.9-6.3,20.8-16.5,20.8c-10.2,0-16.5-8.2-16.5-21v-45H89.8v45.2c0,23.5,13.1,36.6,32.6,36.6c20.5,0,32.7-13.5,32.7-36.8v-45
	h-16.1V534.9z M39,555.5c-13,0-18.4-11.2-18.4-25.5c0-14.4,5.4-25.5,18.4-25.5c13,0,18.4,11.2,18.4,25.5
	C57.4,544.3,52,555.5,39,555.5 M39,488.4c-21.9,0-35,17-35,41.5c0,24.5,13,41.5,35,41.5c22,0,35-17,35-41.5
	C74,505.4,61,488.4,39,488.4 M-35.1,521c-12.8-3-16.2-4.6-16.2-9.7c0-3.6,2.9-7.3,11.5-7.3c7.4,0,13.1,3,18.3,8.3l11.6-11.3
	c-7.6-7.9-16.8-12.7-29.3-12.7c-15.9,0-28.8,9-28.8,23.6c0,15.9,10.4,20.6,25.2,24c15.2,3.4,17.9,5.8,17.9,10.9
	c0,6.1-4.5,8.7-14,8.7c-7.7,0-15-2.7-20.6-9.2l-11.6,10.4c6.1,9,17.9,14.6,31.3,14.6c22,0,31.6-10.4,31.6-25.7
	C-8.2,528.3-22.3,524-35.1,521"/>
</svg>
